<?xml version="1.0" encoding="UTF-8" standalone="no"?>
<!DOCTYPE svg PUBLIC "-//W3C//DTD SVG 1.1//EN" "http://www.w3.org/Graphics/SVG/1.1/DTD/svg11.dtd">
<svg width="100%" height="100%" viewBox="0 0 2122 390" version="1.1" xmlns="http://www.w3.org/2000/svg" xmlns:xlink="http://www.w3.org/1999/xlink" xml:space="preserve" xmlns:serif="http://www.serif.com/" style="fill-rule:evenodd;clip-rule:evenodd;stroke-linecap:round;stroke-linejoin:round;stroke-miterlimit:1.5;">
    <g transform="matrix(0.916989,0,0,0.916989,-408.060218,-155.810048)">
        <path d="M460.5,356.584L446,361L446,308L643,248L643,301L633.855,303.785L633.855,283.477C633.855,274.923 626.909,267.977 618.355,267.977C609.8,267.977 602.855,274.923 602.855,283.477L602.855,313.227L587.186,317.999L587.186,297.891C587.186,289.336 580.241,282.391 571.686,282.391C563.131,282.391 556.186,289.336 556.186,297.891L556.186,327.441L538.961,332.687L538.961,314.564C538.961,306.009 532.016,299.064 523.461,299.064C514.906,299.064 507.961,306.009 507.961,314.564L507.961,342.129L491.5,347.142L491.5,329C491.5,320.445 484.555,313.5 476,313.5C467.445,313.5 460.5,320.445 460.5,329L460.5,356.584Z" style="fill:rgb(193,143,72);stroke:rgb(193,143,72);stroke-width:0.85px;"/>
    </g>
    <g transform="matrix(0.202591,0,0,0.916989,-90.55802,-155.810048)">
        <path d="M960.883,420L447,420L447,371L1383.947,308L1392.751,307.982L1385.2,307.024L1619.634,307.511L1854.067,307.024L1846.517,307.982L1855.32,308L2792.267,371L2792.267,420L2286.801,420C2162.285,367.137 1912.014,331 1623.842,331C1335.67,331 1085.399,367.137 960.883,420Z" style="fill:rgb(193,143,72);"/>
    </g>
    <g transform="matrix(-0.916989,0,0,0.916989,883.103843,-155.766858)">
        <path d="M460.5,356.584L446,361L446,308L643,248L643,301L633.855,303.785L633.855,283.477C633.855,274.923 626.909,267.977 618.355,267.977C609.8,267.977 602.855,274.923 602.855,283.477L602.855,313.227L587.186,317.999L587.186,297.891C587.186,289.336 580.241,282.391 571.686,282.391C563.131,282.391 556.186,289.336 556.186,297.891L556.186,327.441L538.961,332.687L538.961,314.564C538.961,306.009 532.016,299.064 523.461,299.064C514.906,299.064 507.961,306.009 507.961,314.564L507.961,342.129L491.5,347.142L491.5,329C491.5,320.445 484.555,313.5 476,313.5C467.445,313.5 460.5,320.445 460.5,329L460.5,356.584Z" style="fill:rgb(193,143,72);stroke:rgb(193,143,72);stroke-width:0.85px;"/>
    </g>
    <g transform="matrix(-0.916989,0,0,0.916989,883.103843,-213.086755)">
        <path d="M643,283L643,301L446,361L462,339L643,283Z" style="fill:rgb(193,143,72);"/>
    </g>
    <g transform="matrix(0.916989,0,0,0.916989,-408.060218,-213.129946)">
        <path d="M643,283L643,301L446,361L462,339L643,283Z" style="fill:rgb(193,143,72);"/>
    </g>
    <g transform="matrix(0.916989,0,0,0.936093,-408.060218,-161.503023)">
        <path d="M674.725,298L652,298L652,207.917L643,207.878L640,200.041L705,172.612L769.45,200.58L766.45,208.417L756,208.371L756,298L734.725,298L734.725,237.882C734.725,221.662 721.282,208.494 704.725,208.494C688.167,208.494 674.725,221.662 674.725,237.882L674.725,298Z" style="fill:rgb(193,143,72);stroke:rgb(255,12,0);stroke-width:0.17px;"/>
    </g>
    <g transform="matrix(0.973967,0,0,0.893842,-452.843125,-116.813967)">
        <path d="M465.275,434.412L498.687,434.412C504.45,434.412 509.51,435.085 513.868,436.43C518.226,437.776 521.858,439.662 524.763,442.089C527.669,444.517 529.86,447.405 531.337,450.756C532.814,454.106 533.552,457.76 533.552,461.718C533.552,464.989 532.983,468.049 531.845,470.899C530.707,473.748 529.109,476.32 527.051,478.615C524.993,480.911 522.512,482.889 519.606,484.551C516.701,486.213 513.505,487.519 510.018,488.469L545.101,539.36L526.289,539.36L492.804,490.052L481.473,490.052L481.473,539.36L465.275,539.36L465.275,434.412ZM481.473,484.749L490.843,484.749C494.474,484.749 497.828,484.222 500.903,483.166C503.978,482.111 506.641,480.62 508.893,478.695C511.144,476.769 512.9,474.434 514.159,471.69C515.418,468.946 516.047,465.86 516.047,462.43C516.047,459.264 515.551,456.362 514.558,453.724C513.565,451.086 512.161,448.83 510.345,446.957C508.529,445.084 506.375,443.62 503.881,442.564C501.387,441.509 498.663,440.981 495.709,440.981L481.473,440.981L481.473,484.749Z" style="fill:rgb(32,64,102);fill-rule:nonzero;"/>
        <rect x="561.223" y="434.412" width="16.198" height="104.948" style="fill:rgb(32,64,102);fill-rule:nonzero;"/>
        <path d="M644.315,432.038L689.639,539.36L673.151,539.36L658.479,504.378L617.149,504.378L601.969,539.36L593.834,539.36L640.247,432.038L644.315,432.038ZM619.982,497.571L655.501,497.571L637.996,456.019L619.982,497.571Z" style="fill:rgb(32,64,102);fill-rule:nonzero;"/>
        <path d="M703.004,434.412L719.202,434.412L719.202,532.554L767.722,532.554L767.722,539.36L703.004,539.36L703.004,434.412Z" style="fill:rgb(32,64,102);fill-rule:nonzero;"/>
        <path d="M845.084,434.412L845.084,441.219L810.22,441.219L810.22,539.36L794.022,539.36L794.022,441.219L759.157,441.219L759.157,434.412L845.084,434.412Z" style="fill:rgb(32,64,102);fill-rule:nonzero;"/>
        <path d="M896.914,541.814C889.457,541.814 882.496,540.363 876.031,537.461C869.567,534.559 863.95,530.588 859.18,525.549C854.41,520.51 850.658,514.627 847.922,507.9C845.186,501.172 843.818,493.983 843.818,486.332C843.818,481.32 844.435,476.492 845.67,471.848C846.905,467.205 848.66,462.878 850.936,458.868C853.212,454.858 855.96,451.204 859.18,447.907C862.4,444.609 865.971,441.786 869.894,439.438C873.816,437.09 878.053,435.27 882.605,433.977C887.157,432.684 891.926,432.038 896.914,432.038C901.902,432.038 906.671,432.684 911.223,433.977C915.775,435.27 920.024,437.09 923.971,439.438C927.917,441.786 931.488,444.609 934.684,447.907C937.88,451.204 940.628,454.858 942.928,458.868C945.229,462.878 946.996,467.205 948.231,471.848C949.466,476.492 950.083,481.32 950.083,486.332C950.083,491.398 949.466,496.291 948.231,501.014C946.996,505.736 945.229,510.155 942.928,514.271C940.628,518.386 937.88,522.133 934.684,525.51C931.488,528.886 927.917,531.789 923.971,534.216C920.024,536.643 915.775,538.516 911.223,539.835C906.671,541.154 901.902,541.814 896.914,541.814ZM896.914,536.59C902.434,536.59 907.313,535.337 911.55,532.831C915.787,530.324 919.358,526.829 922.264,522.344C925.169,517.859 927.36,512.556 928.837,506.435C930.314,500.315 931.053,493.614 931.053,486.332C931.053,479.103 930.314,472.482 928.837,466.466C927.36,460.451 925.169,455.267 922.264,450.914C919.358,446.561 915.787,443.184 911.55,440.783C907.313,438.383 902.434,437.182 896.914,437.182C891.297,437.182 886.37,438.383 882.133,440.783C877.896,443.184 874.337,446.561 871.455,450.914C868.574,455.267 866.407,460.451 864.955,466.466C863.502,472.482 862.776,479.103 862.776,486.332C862.776,493.614 863.502,500.315 864.955,506.435C866.407,512.556 868.574,517.859 871.455,522.344C874.337,526.829 877.896,530.324 882.133,532.831C886.37,535.337 891.297,536.59 896.914,536.59Z" style="fill:rgb(32,64,102);fill-rule:nonzero;"/>
    </g>
    <g transform="matrix(1.359831,0,0,0.465245,-878.630137,-66.458194)">
        <path d="M1066.389,911.257L1067.717,911.257C1067.502,923.222 1065.491,929.204 1061.685,929.204C1060.057,929.204 1058.77,927.945 1057.825,925.426C1056.879,922.907 1056.263,919.164 1055.975,914.196C1053.582,919.164 1051.397,922.907 1049.422,925.426C1047.447,927.945 1045.682,929.204 1044.126,929.204C1042.139,929.204 1040.427,927.525 1038.991,924.166C1037.555,920.808 1036.837,916.365 1036.837,910.837C1036.837,903.631 1038.04,897.334 1040.445,891.946C1042.851,886.559 1046.173,881.311 1050.41,876.204L1055.975,869.592L1055.975,865.394C1055.975,859.446 1055.844,855.143 1055.58,852.485C1055.317,849.826 1054.635,847.447 1053.534,845.348C1052.433,843.249 1050.984,842.199 1049.189,842.199C1045.598,842.199 1043.599,845.698 1043.192,852.694C1042.809,859.831 1041.804,863.399 1040.176,863.399C1038.716,863.399 1037.986,861.37 1037.986,857.312C1037.986,853.324 1038.955,849.039 1040.894,844.456C1042.833,839.873 1045.849,837.581 1049.943,837.581C1052.983,837.581 1055.341,838.981 1057.017,841.78C1058.692,844.578 1059.8,847.762 1060.338,851.33C1060.877,854.898 1061.146,860.356 1061.146,867.702L1061.146,902.441C1061.146,910.558 1061.29,915.77 1061.577,918.079C1061.864,920.388 1062.487,921.543 1063.444,921.543C1065.024,921.543 1066.006,918.114 1066.389,911.257ZM1055.975,874.524L1052.061,879.142C1045.885,886.489 1042.797,895.725 1042.797,906.849C1042.797,911.257 1043.192,914.808 1043.982,917.502C1044.772,920.196 1045.802,921.543 1047.07,921.543C1048.195,921.543 1049.5,920.458 1050.984,918.289C1052.468,916.12 1054.132,912.867 1055.975,908.529L1055.975,874.524Z" style="fill:rgb(32,64,102);fill-rule:nonzero;"/>
        <path d="M1093.93,930.463L1092.529,930.463L1092.529,815.437C1092.529,807.041 1092.451,801.618 1092.296,799.169C1092.14,796.72 1091.745,794.901 1091.111,793.712C1090.477,792.522 1089.369,791.928 1087.789,791.928L1087.789,787.1C1089.202,787.1 1090.901,786.61 1092.888,785.631C1094.875,784.651 1096.228,783.671 1096.946,782.692L1097.7,782.692L1097.7,850.7C1099.376,846.292 1101.075,843.004 1102.799,840.835C1104.522,838.666 1106.27,837.581 1108.041,837.581C1112.278,837.581 1115.749,841.884 1118.454,850.49C1121.159,859.096 1122.512,870.081 1122.512,883.445C1122.512,896.879 1121.124,908.074 1118.347,917.03C1115.57,925.985 1111.967,930.463 1107.539,930.463C1105.36,930.463 1103.451,929.134 1101.811,926.475C1100.172,923.816 1098.801,919.863 1097.7,914.616C1096.144,919.164 1094.887,924.446 1093.93,930.463ZM1097.7,856.893L1097.7,890.582C1097.7,899.258 1097.897,905.502 1098.292,909.316C1098.687,913.129 1099.639,916.785 1101.147,920.283C1102.655,923.781 1104.415,925.531 1106.425,925.531C1109.513,925.531 1111.973,921.822 1113.804,914.406C1115.636,906.989 1116.551,896.319 1116.551,882.396C1116.551,869.592 1115.696,859.849 1113.984,853.167C1112.272,846.485 1109.992,843.144 1107.144,843.144C1105.516,843.144 1103.918,844.281 1102.35,846.555C1100.782,848.829 1099.232,852.275 1097.7,856.893Z" style="fill:rgb(32,64,102);fill-rule:nonzero;"/>
        <path d="M1137.414,859.516C1138.228,853.289 1139.55,848.077 1141.381,843.879C1143.213,839.68 1145.002,837.581 1146.75,837.581C1148.329,837.581 1149.574,839.016 1150.484,841.884C1151.394,844.753 1151.848,847.692 1151.848,850.7C1151.848,852.729 1151.615,854.479 1151.148,855.948C1150.681,857.417 1150.113,858.152 1149.443,858.152C1148.246,858.152 1147.336,855.563 1146.714,850.386C1146.283,846.887 1145.636,845.138 1144.775,845.138C1143.745,845.138 1142.512,847.185 1141.076,851.278C1139.64,855.371 1138.718,859.621 1138.311,864.029C1137.904,868.437 1137.701,874.489 1137.701,882.186L1137.701,897.509C1137.701,906.674 1137.743,912.447 1137.827,914.826C1137.91,917.205 1138.251,919.024 1138.85,920.283C1139.448,921.543 1140.514,922.172 1142.046,922.172L1143.051,922.172L1143.051,927L1127.431,927L1127.431,922.172L1128.185,922.172C1129.622,922.172 1130.645,921.595 1131.255,920.441C1131.866,919.286 1132.231,917.659 1132.351,915.56C1132.47,913.461 1132.53,907.444 1132.53,897.509L1132.53,873.265C1132.53,864.029 1132.488,858.239 1132.405,855.895C1132.321,853.552 1131.98,851.732 1131.381,850.438C1130.783,849.144 1129.717,848.496 1128.185,848.496L1127.431,848.496L1127.431,843.774C1129.682,843.004 1132.626,840.94 1136.265,837.581C1136.959,843.109 1137.342,850.421 1137.414,859.516Z" style="fill:rgb(32,64,102);fill-rule:nonzero;"/>
        <path d="M1156.911,793.712C1156.911,790.703 1157.276,788.114 1158.007,785.945C1158.737,783.776 1159.616,782.692 1160.646,782.692C1161.675,782.692 1162.549,783.776 1163.267,785.945C1163.985,788.114 1164.344,790.703 1164.344,793.712C1164.344,796.79 1163.985,799.414 1163.267,801.583C1162.549,803.752 1161.675,804.837 1160.646,804.837C1159.616,804.837 1158.737,803.752 1158.007,801.583C1157.276,799.414 1156.911,796.79 1156.911,793.712ZM1163.842,837.581L1163.842,897.509C1163.842,906.674 1163.889,912.447 1163.985,914.826C1164.081,917.205 1164.428,919.024 1165.026,920.283C1165.625,921.543 1166.69,922.172 1168.222,922.172L1168.976,922.172L1168.976,927L1153.141,927L1153.141,922.172L1154.362,922.172C1156.062,922.172 1157.169,921.455 1157.683,920.021C1158.198,918.586 1158.497,916.872 1158.581,914.878C1158.665,912.884 1158.707,907.094 1158.707,897.509L1158.707,871.481C1158.707,861.405 1158.545,855.248 1158.222,853.009C1157.899,850.77 1157.468,849.371 1156.929,848.811C1156.391,848.252 1155.451,847.972 1154.111,847.972L1153.141,847.972L1153.141,843.144C1157.402,841.884 1160.706,840.03 1163.052,837.581L1163.842,837.581Z" style="fill:rgb(32,64,102);fill-rule:nonzero;"/>
        <path d="M1197.99,850.176L1197.99,816.591C1197.99,807.425 1197.948,801.653 1197.864,799.274C1197.78,796.895 1197.439,795.076 1196.841,793.817C1196.242,792.557 1195.177,791.928 1193.645,791.928L1192.891,791.928L1192.891,787.1C1195.787,786.89 1198.959,785.421 1202.406,782.692L1203.16,782.692L1203.16,898.243C1203.16,908.249 1203.22,914.336 1203.34,916.505C1203.459,918.674 1203.837,920.283 1204.471,921.333C1205.105,922.382 1206.284,922.907 1208.008,922.907L1208.008,927.735C1204.537,927.945 1201.449,928.854 1198.744,930.463C1198.456,927.175 1198.313,921.997 1198.313,914.931C1196.541,920.108 1194.716,923.991 1192.837,926.58C1190.958,929.169 1189.013,930.463 1187.002,930.463C1183.196,930.463 1179.91,925.985 1177.145,917.03C1174.38,908.074 1172.998,897.229 1172.998,884.495C1172.998,870.501 1174.41,859.184 1177.235,850.543C1180.06,841.902 1183.423,837.581 1187.325,837.581C1189.312,837.581 1191.191,838.631 1192.963,840.73C1194.734,842.829 1196.41,845.978 1197.99,850.176ZM1197.99,856.263C1196.41,852.275 1194.824,849.284 1193.232,847.289C1191.64,845.295 1190.042,844.298 1188.438,844.298C1185.733,844.298 1183.477,847.342 1181.67,853.429C1179.862,859.516 1178.959,869.452 1178.959,883.235C1178.959,897.229 1179.886,907.549 1181.741,914.196C1183.597,920.843 1185.889,924.166 1188.618,924.166C1190.437,924.166 1192.125,922.907 1193.681,920.388C1195.237,917.869 1196.673,914.091 1197.99,909.053L1197.99,856.263Z" style="fill:rgb(32,64,102);fill-rule:nonzero;"/>
        <path d="M1233.897,848.601C1235.932,841.884 1237.991,838.526 1240.073,838.526C1241.222,838.526 1242.114,839.436 1242.748,841.255C1243.383,843.074 1243.7,845.068 1243.7,847.237C1243.7,851.855 1242.982,854.164 1241.545,854.164C1240.755,854.164 1240.073,852.729 1239.499,849.861C1238.972,847.202 1238.421,845.873 1237.847,845.873C1236.937,845.873 1235.932,847.692 1234.831,851.33C1236.075,857.067 1236.698,863.155 1236.698,869.592C1236.698,877.988 1235.669,885.404 1233.61,891.841C1231.551,898.348 1228.08,901.847 1223.197,902.336C1218.122,902.826 1215.584,905.835 1215.584,911.362C1215.584,913.951 1216.159,915.77 1217.308,916.82C1218.433,917.939 1220.803,918.779 1224.418,919.339C1228.367,919.898 1231.407,920.965 1233.538,922.54C1235.669,924.114 1237.368,927.28 1238.637,932.038C1239.906,936.795 1240.54,942.463 1240.54,949.04C1240.54,958.275 1239.247,965.727 1236.662,971.394C1234.077,977.062 1230.354,979.895 1225.495,979.895C1221.042,979.895 1217.475,977.377 1214.794,972.339C1212.113,967.301 1210.773,960.934 1210.773,953.238C1210.773,948.97 1211.156,945.471 1211.922,942.743C1212.688,940.014 1213.777,938.65 1215.189,938.65C1215.572,938.65 1215.919,938.825 1216.231,939.174C1214.746,943.932 1214.004,948.97 1214.004,954.287C1214.004,960.444 1214.992,965.535 1216.967,969.558C1218.942,973.581 1221.892,975.592 1225.818,975.592C1229.313,975.592 1232.036,973.546 1233.987,969.453C1235.938,965.36 1236.913,960.13 1236.913,953.763C1236.913,946.766 1236.04,941.833 1234.292,938.964C1232.545,936.166 1229.433,934.487 1224.956,933.927C1219.809,933.297 1216.47,931.443 1214.938,928.364C1213.406,925.356 1212.64,921.473 1212.64,916.715C1212.64,907.549 1214.83,901.777 1219.211,899.398C1216.937,895.48 1215.225,891.002 1214.076,885.964C1212.927,880.926 1212.353,875.294 1212.353,869.067C1212.353,860.321 1213.532,852.887 1215.889,846.765C1218.247,840.643 1221.042,837.581 1224.274,837.581C1228.272,837.581 1231.479,841.255 1233.897,848.601ZM1217.739,871.481C1217.739,880.507 1218.373,887.118 1219.642,891.317C1220.911,895.515 1222.526,897.614 1224.489,897.614C1226.309,897.614 1227.871,895.532 1229.175,891.369C1230.48,887.206 1231.132,879.982 1231.132,869.697C1231.132,859.341 1230.438,852.205 1229.05,848.286C1227.661,844.368 1226.093,842.409 1224.346,842.409C1222.143,842.409 1220.492,844.823 1219.39,849.651C1218.289,854.479 1217.739,861.755 1217.739,871.481Z" style="fill:rgb(32,64,102);fill-rule:nonzero;"/>
        <path d="M1272.534,870.116L1252.03,870.116C1251.935,874.244 1251.887,877.323 1251.887,879.352C1251.887,894.465 1252.695,905.817 1254.311,913.409C1255.926,921 1258.338,924.796 1261.546,924.796C1265.903,924.796 1268.991,919.094 1270.81,907.689L1272.534,907.689C1271.768,914.826 1270.247,920.406 1267.973,924.429C1265.699,928.452 1263.222,930.463 1260.54,930.463C1258.051,930.463 1255.699,928.627 1253.485,924.953C1251.27,921.28 1249.457,916.085 1248.045,909.368C1246.632,902.651 1245.926,894.5 1245.926,884.915C1245.926,871.341 1247.291,860.059 1250.02,851.068C1252.749,842.077 1256.16,837.581 1260.253,837.581C1264.107,837.581 1267.088,841.01 1269.194,847.867C1271.301,854.724 1272.414,862.14 1272.534,870.116ZM1266.25,865.918C1266.322,864.309 1266.357,862.875 1266.357,861.615C1266.357,855.458 1265.741,850.683 1264.508,847.289C1263.275,843.896 1261.761,842.199 1259.966,842.199C1255.609,842.199 1253.012,850.106 1252.174,865.918L1266.25,865.918Z" style="fill:rgb(32,64,102);fill-rule:nonzero;"/>
        <path d="M1311.601,841.045L1311.601,845.873L1305.461,845.873L1305.461,897.509C1305.461,906.674 1305.503,912.447 1305.586,914.826C1305.67,917.205 1306.011,919.024 1306.61,920.283C1307.208,921.543 1308.274,922.172 1309.806,922.172L1311.35,922.172L1311.35,927L1295.443,927L1295.443,922.172C1297.094,922.172 1298.237,921.682 1298.872,920.703C1299.506,919.723 1299.901,918.237 1300.057,916.242C1300.212,914.248 1300.29,908.004 1300.29,897.509L1300.29,845.873L1294.796,845.873L1294.796,841.045L1300.29,841.045L1300.29,833.278C1300.29,824.602 1300.41,817.886 1300.649,813.128C1300.889,808.37 1301.565,803.455 1302.678,798.382C1303.791,793.309 1305.191,789.409 1306.879,786.68C1308.567,783.951 1310.572,782.587 1312.894,782.587C1315.718,782.587 1317.98,784.301 1319.68,787.73C1321.38,791.158 1322.23,794.656 1322.23,798.225C1322.23,800.254 1321.99,801.933 1321.511,803.262C1321.033,804.592 1320.47,805.256 1319.824,805.256C1318.555,805.256 1317.394,802.388 1316.341,796.65C1315.168,790.353 1313.648,787.205 1311.78,787.205C1310.272,787.205 1308.95,788.797 1307.813,791.98C1306.676,795.164 1305.999,799.134 1305.784,803.892C1305.568,808.65 1305.461,818.865 1305.461,834.538L1305.461,841.045L1311.601,841.045Z" style="fill:rgb(32,64,102);fill-rule:nonzero;"/>
        <path d="M1325.892,859.516C1326.706,853.289 1328.029,848.077 1329.86,843.879C1331.691,839.68 1333.481,837.581 1335.228,837.581C1336.808,837.581 1338.053,839.016 1338.962,841.884C1339.872,844.753 1340.327,847.692 1340.327,850.7C1340.327,852.729 1340.094,854.479 1339.627,855.948C1339.16,857.417 1338.591,858.152 1337.921,858.152C1336.724,858.152 1335.815,855.563 1335.192,850.386C1334.761,846.887 1334.115,845.138 1333.253,845.138C1332.224,845.138 1330.991,847.185 1329.555,851.278C1328.118,855.371 1327.197,859.621 1326.79,864.029C1326.383,868.437 1326.179,874.489 1326.179,882.186L1326.179,897.509C1326.179,906.674 1326.221,912.447 1326.305,914.826C1326.389,917.205 1326.73,919.024 1327.328,920.283C1327.927,921.543 1328.992,922.172 1330.524,922.172L1331.53,922.172L1331.53,927L1315.91,927L1315.91,922.172L1316.664,922.172C1318.1,922.172 1319.124,921.595 1319.734,920.441C1320.344,919.286 1320.709,917.659 1320.829,915.56C1320.949,913.461 1321.009,907.444 1321.009,897.509L1321.009,873.265C1321.009,864.029 1320.967,858.239 1320.883,855.895C1320.799,853.552 1320.458,851.732 1319.86,850.438C1319.261,849.144 1318.196,848.496 1316.664,848.496L1315.91,848.496L1315.91,843.774C1318.16,843.004 1321.104,840.94 1324.743,837.581C1325.437,843.109 1325.82,850.421 1325.892,859.516Z" style="fill:rgb(32,64,102);fill-rule:nonzero;"/>
        <path d="M1341.799,883.865C1341.799,870.711 1343.307,859.709 1346.323,850.858C1349.34,842.007 1353.05,837.581 1357.455,837.581C1361.883,837.581 1365.606,842.024 1368.622,850.91C1371.638,859.796 1373.146,870.781 1373.146,883.865C1373.146,898.348 1371.614,909.736 1368.55,918.027C1365.486,926.318 1361.788,930.463 1357.455,930.463C1353.122,930.463 1349.429,926.248 1346.377,917.817C1343.325,909.386 1341.799,898.068 1341.799,883.865ZM1347.76,884.39C1347.76,899.643 1348.61,910.33 1350.309,916.452C1352.009,922.575 1354.391,925.636 1357.455,925.636C1360.591,925.636 1362.991,922.575 1364.654,916.452C1366.318,910.33 1367.15,899.643 1367.15,884.39C1367.15,869.277 1366.324,858.502 1364.672,852.065C1363.02,845.628 1360.615,842.409 1357.455,842.409C1354.319,842.409 1351.919,845.61 1350.255,852.012C1348.592,858.414 1347.76,869.207 1347.76,884.39Z" style="fill:rgb(32,64,102);fill-rule:nonzero;"/>
        <path d="M1386.145,837.581L1386.504,837.581C1387.198,842.269 1387.545,848.286 1387.545,855.633C1389.149,849.616 1390.879,845.103 1392.734,842.094C1394.589,839.086 1396.582,837.581 1398.713,837.581C1401.13,837.581 1403.093,839.191 1404.601,842.409C1406.109,845.628 1407.163,850.455 1407.761,856.893C1409.581,850.455 1411.448,845.628 1413.363,842.409C1415.278,839.191 1417.229,837.581 1419.216,837.581C1421.49,837.581 1423.417,839.121 1424.997,842.199C1426.577,845.278 1427.534,848.776 1427.869,852.694C1428.205,856.613 1428.372,862.945 1428.372,871.691L1428.372,897.509C1428.372,907.514 1428.438,913.601 1428.57,915.77C1428.701,917.939 1429.084,919.548 1429.719,920.598C1430.353,921.647 1431.532,922.172 1433.256,922.172L1433.256,927L1418.569,927L1418.569,922.172C1420.125,922.172 1421.221,921.665 1421.855,920.65C1422.489,919.636 1422.878,918.097 1423.022,916.033C1423.166,913.969 1423.237,907.794 1423.237,897.509L1423.237,868.857C1423.237,863.05 1423.124,858.677 1422.896,855.738C1422.669,852.799 1422.076,850.281 1421.119,848.182C1420.161,846.083 1418.916,845.033 1417.384,845.033C1415.828,845.033 1414.266,846.572 1412.699,849.651C1411.131,852.729 1409.557,857.382 1407.977,863.609L1407.977,897.509C1407.977,906.674 1408.019,912.429 1408.102,914.773C1408.186,917.117 1408.521,918.936 1409.108,920.231C1409.694,921.525 1410.742,922.172 1412.25,922.172L1412.25,927L1398.03,927L1398.03,922.172C1399.634,922.172 1400.753,921.682 1401.388,920.703C1402.022,919.723 1402.417,918.219 1402.573,916.19C1402.728,914.161 1402.806,907.934 1402.806,897.509L1402.806,873.685C1402.806,866.128 1402.704,860.653 1402.501,857.26C1402.297,853.866 1401.681,850.963 1400.652,848.549C1399.622,846.135 1398.341,844.928 1396.809,844.928C1395.325,844.928 1393.811,846.327 1392.267,849.126C1390.723,851.925 1389.149,856.123 1387.545,861.72L1387.545,897.509C1387.545,906.954 1387.593,912.832 1387.689,915.14C1387.785,917.449 1388.144,919.199 1388.766,920.388C1389.389,921.578 1390.502,922.172 1392.106,922.172L1392.106,927L1377.707,927L1377.707,922.172C1379.287,922.172 1380.394,921.665 1381.028,920.65C1381.662,919.636 1382.051,918.114 1382.195,916.085C1382.339,914.056 1382.411,907.864 1382.411,897.509L1382.411,871.796C1382.411,862 1382.357,856 1382.249,853.796C1382.141,851.592 1381.77,849.931 1381.136,848.811C1380.501,847.692 1379.358,847.132 1377.707,847.132L1377.707,842.304C1381.106,841.325 1383.919,839.75 1386.145,837.581Z" style="fill:rgb(32,64,102);fill-rule:nonzero;"/>
        <path d="M1484.962,874.524L1466.47,874.524L1465.213,883.55C1463.346,896.634 1462.412,905.17 1462.412,909.158C1462.412,913.426 1462.909,916.662 1463.903,918.866C1464.896,921.07 1466.171,922.172 1467.727,922.172L1467.727,927L1453.256,927L1453.256,922.172C1455.41,921.193 1457.014,918.971 1458.068,915.508C1459.121,912.044 1460.39,904.75 1461.874,893.625C1461.994,892.576 1462.568,888.518 1463.597,881.451L1477.745,782.692L1479.145,782.692L1495.411,895.725L1497.638,910.628C1498.14,913.986 1498.817,916.627 1499.666,918.551C1500.516,920.476 1501.791,921.682 1503.491,922.172L1503.491,927L1484.352,927L1484.352,922.172C1486.698,922.172 1488.284,921.665 1489.11,920.65C1489.936,919.636 1490.348,917.624 1490.348,914.616C1490.348,913.076 1489.798,908.494 1488.697,900.867L1484.962,874.524ZM1484.352,869.802L1475.734,809.14L1467.152,869.802L1484.352,869.802Z" style="fill:rgb(32,64,102);fill-rule:nonzero;"/>
        <path d="M1504.927,789.514L1504.927,784.686L1527.19,784.686L1527.19,789.514L1526.148,789.514C1523.754,789.514 1522.186,790.091 1521.444,791.245C1520.702,792.4 1520.206,794.551 1519.954,797.7C1519.703,800.848 1519.577,808.335 1519.577,820.16L1519.577,889.952C1519.577,901.147 1519.667,908.476 1519.847,911.939C1520.026,915.403 1520.505,917.974 1521.283,919.653C1522.061,921.333 1523.551,922.172 1525.753,922.172L1527.19,922.172L1527.19,927L1504.927,927L1504.927,922.172L1506.363,922.172C1508.446,922.172 1509.888,921.403 1510.69,919.863C1511.492,918.324 1512.001,915.928 1512.216,912.674C1512.432,909.421 1512.539,901.847 1512.539,889.952L1512.539,820.16C1512.539,808.825 1512.432,801.513 1512.216,798.225C1512.001,794.936 1511.522,792.662 1510.78,791.403C1510.038,790.143 1508.434,789.514 1505.968,789.514L1504.927,789.514Z" style="fill:rgb(32,64,102);fill-rule:nonzero;"/>
        <path d="M1567.621,845.873L1558.752,845.873L1558.752,897.824C1558.752,905.8 1558.872,911.17 1559.111,913.934C1559.351,916.697 1559.859,918.919 1560.637,920.598C1561.415,922.277 1562.247,923.117 1563.133,923.117C1564.857,923.117 1566.353,920.248 1567.621,914.511L1568.77,916.505C1568.028,921.123 1566.933,924.604 1565.485,926.948C1564.037,929.291 1562.57,930.463 1561.086,930.463C1559.363,930.463 1557.849,928.977 1556.544,926.003C1555.239,923.029 1554.425,919.548 1554.102,915.56C1553.779,911.572 1553.618,904.575 1553.618,894.57L1553.618,845.873L1549.345,845.873L1549.345,841.045C1551.307,840.905 1553.067,838.491 1554.623,833.803C1556.179,829.115 1557.172,822.538 1557.603,814.072L1558.752,814.072L1558.752,841.045L1567.621,841.045L1567.621,845.873Z" style="fill:rgb(32,64,102);fill-rule:nonzero;"/>
        <path d="M1571.607,883.865C1571.607,870.711 1573.115,859.709 1576.132,850.858C1579.148,842.007 1582.858,837.581 1587.263,837.581C1591.691,837.581 1595.414,842.024 1598.43,850.91C1601.446,859.796 1602.954,870.781 1602.954,883.865C1602.954,898.348 1601.422,909.736 1598.358,918.027C1595.294,926.318 1591.596,930.463 1587.263,930.463C1582.93,930.463 1579.238,926.248 1576.185,917.817C1573.133,909.386 1571.607,898.068 1571.607,883.865ZM1577.568,884.39C1577.568,899.643 1578.418,910.33 1580.117,916.452C1581.817,922.575 1584.199,925.636 1587.263,925.636C1590.399,925.636 1592.799,922.575 1594.462,916.452C1596.126,910.33 1596.958,899.643 1596.958,884.39C1596.958,869.277 1596.132,858.502 1594.48,852.065C1592.829,845.628 1590.423,842.409 1587.263,842.409C1584.127,842.409 1581.727,845.61 1580.063,852.012C1578.4,858.414 1577.568,869.207 1577.568,884.39Z" style="fill:rgb(32,64,102);fill-rule:nonzero;"/>
        <path d="M1663.925,784.686L1664.32,820.16L1662.633,820.16C1662.298,812.393 1661.55,805.974 1660.388,800.901C1659.227,795.828 1658.013,792.662 1656.744,791.403C1655.475,790.143 1653.333,789.514 1650.316,789.514L1640.801,789.514L1640.801,849.861L1645.361,849.861C1648.306,849.861 1650.263,848.409 1651.232,845.505C1652.202,842.602 1652.686,836.777 1652.686,828.031L1654.482,828.031L1654.482,878.198L1652.686,878.198C1652.686,872.11 1652.477,867.3 1652.058,863.767C1651.639,860.233 1651.017,857.82 1650.191,856.525C1649.365,855.231 1647.755,854.584 1645.361,854.584L1640.801,854.584L1640.801,889.952C1640.801,901.147 1640.897,908.476 1641.088,911.939C1641.28,915.403 1641.764,917.974 1642.542,919.653C1643.32,921.333 1644.823,922.172 1647.049,922.172L1648.701,922.172L1648.701,927L1626.079,927L1626.079,922.172L1627.587,922.172C1629.67,922.172 1631.112,921.403 1631.914,919.863C1632.716,918.324 1633.23,915.928 1633.458,912.674C1633.685,909.421 1633.799,901.847 1633.799,889.952L1633.799,820.16C1633.799,808.825 1633.685,801.513 1633.458,798.225C1633.23,794.936 1632.752,792.662 1632.022,791.403C1631.291,790.143 1629.694,789.514 1627.228,789.514L1626.366,789.514L1626.366,784.686L1663.925,784.686Z" style="fill:rgb(32,64,102);fill-rule:nonzero;"/>
        <path d="M1669.563,793.712C1669.563,790.703 1669.928,788.114 1670.658,785.945C1671.388,783.776 1672.268,782.692 1673.297,782.692C1674.327,782.692 1675.2,783.776 1675.918,785.945C1676.637,788.114 1676.996,790.703 1676.996,793.712C1676.996,796.79 1676.637,799.414 1675.918,801.583C1675.2,803.752 1674.327,804.837 1673.297,804.837C1672.268,804.837 1671.388,803.752 1670.658,801.583C1669.928,799.414 1669.563,796.79 1669.563,793.712ZM1676.493,837.581L1676.493,897.509C1676.493,906.674 1676.541,912.447 1676.637,914.826C1676.732,917.205 1677.079,919.024 1677.678,920.283C1678.276,921.543 1679.342,922.172 1680.874,922.172L1681.628,922.172L1681.628,927L1665.793,927L1665.793,922.172L1667.013,922.172C1668.713,922.172 1669.82,921.455 1670.335,920.021C1670.85,918.586 1671.149,916.872 1671.233,914.878C1671.316,912.884 1671.358,907.094 1671.358,897.509L1671.358,871.481C1671.358,861.405 1671.197,855.248 1670.873,853.009C1670.55,850.77 1670.119,849.371 1669.581,848.811C1669.042,848.252 1668.103,847.972 1666.762,847.972L1665.793,847.972L1665.793,843.144C1670.054,841.884 1673.357,840.03 1675.703,837.581L1676.493,837.581Z" style="fill:rgb(32,64,102);fill-rule:nonzero;"/>
        <path d="M1694.303,782.692L1694.303,897.509C1694.303,906.674 1694.345,912.447 1694.429,914.826C1694.513,917.205 1694.854,919.024 1695.452,920.283C1696.051,921.543 1697.116,922.172 1698.648,922.172L1699.51,922.172L1699.51,927L1683.782,927L1683.782,922.172L1684.788,922.172C1686.224,922.172 1687.247,921.595 1687.858,920.441C1688.468,919.286 1688.833,917.659 1688.953,915.56C1689.073,913.461 1689.132,907.444 1689.132,897.509L1689.132,812.498C1689.132,803.472 1688.857,797.787 1688.307,795.443C1687.756,793.1 1686.415,791.928 1684.285,791.928L1684.285,787.1C1685.745,787.1 1687.463,786.61 1689.438,785.631C1691.413,784.651 1692.771,783.671 1693.513,782.692L1694.303,782.692Z" style="fill:rgb(32,64,102);fill-rule:nonzero;"/>
        <path d="M1730.031,870.116L1709.528,870.116C1709.432,874.244 1709.384,877.323 1709.384,879.352C1709.384,894.465 1710.192,905.817 1711.808,913.409C1713.424,921 1715.836,924.796 1719.043,924.796C1723.4,924.796 1726.488,919.094 1728.308,907.689L1730.031,907.689C1729.265,914.826 1727.745,920.406 1725.471,924.429C1723.197,928.452 1720.719,930.463 1718.038,930.463C1715.548,930.463 1713.196,928.627 1710.982,924.953C1708.768,921.28 1706.955,916.085 1705.542,909.368C1704.13,902.651 1703.424,894.5 1703.424,884.915C1703.424,871.341 1704.788,860.059 1707.517,851.068C1710.246,842.077 1713.657,837.581 1717.751,837.581C1721.605,837.581 1724.585,841.01 1726.692,847.867C1728.798,854.724 1729.911,862.14 1730.031,870.116ZM1723.747,865.918C1723.819,864.309 1723.855,862.875 1723.855,861.615C1723.855,855.458 1723.239,850.683 1722.006,847.289C1720.773,843.896 1719.259,842.199 1717.463,842.199C1713.107,842.199 1710.509,850.106 1709.672,865.918L1723.747,865.918Z" style="fill:rgb(32,64,102);fill-rule:nonzero;"/>
        <path d="M1743.137,837.581L1743.496,837.581C1744.191,842.269 1744.538,848.286 1744.538,855.633C1746.142,849.616 1747.871,845.103 1749.726,842.094C1751.582,839.086 1753.574,837.581 1755.705,837.581C1758.123,837.581 1760.086,839.191 1761.594,842.409C1763.102,845.628 1764.155,850.455 1764.754,856.893C1766.573,850.455 1768.44,845.628 1770.355,842.409C1772.27,839.191 1774.221,837.581 1776.208,837.581C1778.482,837.581 1780.409,839.121 1781.989,842.199C1783.569,845.278 1784.527,848.776 1784.862,852.694C1785.197,856.613 1785.365,862.945 1785.365,871.691L1785.365,897.509C1785.365,907.514 1785.43,913.601 1785.562,915.77C1785.694,917.939 1786.077,919.548 1786.711,920.598C1787.345,921.647 1788.524,922.172 1790.248,922.172L1790.248,927L1775.562,927L1775.562,922.172C1777.118,922.172 1778.213,921.665 1778.847,920.65C1779.482,919.636 1779.871,918.097 1780.014,916.033C1780.158,913.969 1780.23,907.794 1780.23,897.509L1780.23,868.857C1780.23,863.05 1780.116,858.677 1779.889,855.738C1779.661,852.799 1779.069,850.281 1778.111,848.182C1777.154,846.083 1775.909,845.033 1774.377,845.033C1772.821,845.033 1771.259,846.572 1769.691,849.651C1768.123,852.729 1766.549,857.382 1764.969,863.609L1764.969,897.509C1764.969,906.674 1765.011,912.429 1765.095,914.773C1765.179,917.117 1765.514,918.936 1766.1,920.231C1766.687,921.525 1767.734,922.172 1769.242,922.172L1769.242,927L1755.023,927L1755.023,922.172C1756.627,922.172 1757.746,921.682 1758.38,920.703C1759.014,919.723 1759.409,918.219 1759.565,916.19C1759.721,914.161 1759.798,907.934 1759.798,897.509L1759.798,873.685C1759.798,866.128 1759.697,860.653 1759.493,857.26C1759.29,853.866 1758.673,850.963 1757.644,848.549C1756.615,846.135 1755.334,844.928 1753.802,844.928C1752.318,844.928 1750.804,846.327 1749.26,849.126C1747.716,851.925 1746.142,856.123 1744.538,861.72L1744.538,897.509C1744.538,906.954 1744.586,912.832 1744.681,915.14C1744.777,917.449 1745.136,919.199 1745.759,920.388C1746.381,921.578 1747.494,922.172 1749.098,922.172L1749.098,927L1734.699,927L1734.699,922.172C1736.279,922.172 1737.386,921.665 1738.021,920.65C1738.655,919.636 1739.044,918.114 1739.188,916.085C1739.331,914.056 1739.403,907.864 1739.403,897.509L1739.403,871.796C1739.403,862 1739.349,856 1739.241,853.796C1739.134,851.592 1738.763,849.931 1738.128,848.811C1737.494,847.692 1736.351,847.132 1734.699,847.132L1734.699,842.304C1738.098,841.325 1740.911,839.75 1743.137,837.581Z" style="fill:rgb(32,64,102);fill-rule:nonzero;"/>
        <path d="M1824.216,911.257L1825.545,911.257C1825.33,923.222 1823.319,929.204 1819.513,929.204C1817.885,929.204 1816.598,927.945 1815.653,925.426C1814.707,922.907 1814.091,919.164 1813.803,914.196C1811.409,919.164 1809.225,922.907 1807.25,925.426C1805.275,927.945 1803.51,929.204 1801.954,929.204C1799.967,929.204 1798.255,927.525 1796.819,924.166C1795.383,920.808 1794.665,916.365 1794.665,910.837C1794.665,903.631 1795.868,897.334 1798.273,891.946C1800.679,886.559 1804.001,881.311 1808.238,876.204L1813.803,869.592L1813.803,865.394C1813.803,859.446 1813.672,855.143 1813.408,852.485C1813.145,849.826 1812.463,847.447 1811.362,845.348C1810.26,843.249 1808.812,842.199 1807.017,842.199C1803.426,842.199 1801.427,845.698 1801.02,852.694C1800.637,859.831 1799.632,863.399 1798.004,863.399C1796.544,863.399 1795.814,861.37 1795.814,857.312C1795.814,853.324 1796.783,849.039 1798.722,844.456C1800.661,839.873 1803.677,837.581 1807.771,837.581C1810.811,837.581 1813.169,838.981 1814.845,841.78C1816.52,844.578 1817.627,847.762 1818.166,851.33C1818.705,854.898 1818.974,860.356 1818.974,867.702L1818.974,902.441C1818.974,910.558 1819.118,915.77 1819.405,918.079C1819.692,920.388 1820.315,921.543 1821.272,921.543C1822.852,921.543 1823.833,918.114 1824.216,911.257ZM1813.803,874.524L1809.889,879.142C1803.713,886.489 1800.625,895.725 1800.625,906.849C1800.625,911.257 1801.02,914.808 1801.81,917.502C1802.6,920.196 1803.63,921.543 1804.898,921.543C1806.023,921.543 1807.328,920.458 1808.812,918.289C1810.296,916.12 1811.96,912.867 1813.803,908.529L1813.803,874.524Z" style="fill:rgb(32,64,102);fill-rule:nonzero;"/>
        <path d="M1845.725,841.045L1857.575,841.045L1857.575,845.873C1855.396,846.013 1852.476,850.77 1848.813,860.146C1847.64,863.085 1845.821,867.388 1843.355,873.055L1853.84,908.948C1855.42,914.336 1856.665,917.852 1857.575,919.496C1858.484,921.14 1859.418,922.032 1860.375,922.172L1860.375,927L1845.725,927L1845.725,922.172C1848.167,922.032 1849.388,920.493 1849.388,917.554C1849.388,916.225 1848.586,912.832 1846.982,907.374L1839.441,881.766L1837.897,885.124L1837.897,897.509C1837.897,906.674 1837.939,912.429 1838.023,914.773C1838.107,917.117 1838.448,918.936 1839.046,920.231C1839.645,921.525 1840.686,922.172 1842.17,922.172L1842.17,927L1827.269,927L1827.269,922.172L1828.382,922.172C1830.105,922.172 1831.224,921.455 1831.739,920.021C1832.254,918.586 1832.547,916.872 1832.619,914.878C1832.691,912.884 1832.727,907.094 1832.727,897.509L1832.727,811.344C1832.727,803.017 1832.457,797.7 1831.919,795.391C1831.38,793.082 1830.081,791.928 1828.023,791.928L1828.023,787.1C1829.435,787.1 1831.129,786.61 1833.104,785.631C1835.079,784.651 1836.425,783.671 1837.143,782.692L1837.897,782.692L1837.897,879.352L1840.985,873.055C1845.988,862.7 1848.49,855.248 1848.49,850.7C1848.49,847.622 1847.568,846.013 1845.725,845.873L1845.725,841.045Z" style="fill:rgb(32,64,102);fill-rule:nonzero;"/>
        <path d="M1889.389,870.116L1868.885,870.116C1868.79,874.244 1868.742,877.323 1868.742,879.352C1868.742,894.465 1869.55,905.817 1871.166,913.409C1872.781,921 1875.193,924.796 1878.401,924.796C1882.758,924.796 1885.846,919.094 1887.665,907.689L1889.389,907.689C1888.623,914.826 1887.103,920.406 1884.828,924.429C1882.554,928.452 1880.077,930.463 1877.396,930.463C1874.906,930.463 1872.554,928.627 1870.34,924.953C1868.125,921.28 1866.312,916.085 1864.9,909.368C1863.487,902.651 1862.781,894.5 1862.781,884.915C1862.781,871.341 1864.146,860.059 1866.875,851.068C1869.604,842.077 1873.015,837.581 1877.108,837.581C1880.962,837.581 1883.943,841.01 1886.049,847.867C1888.156,854.724 1889.269,862.14 1889.389,870.116ZM1883.105,865.918C1883.177,864.309 1883.213,862.875 1883.213,861.615C1883.213,855.458 1882.596,850.683 1881.363,847.289C1880.13,843.896 1878.616,842.199 1876.821,842.199C1872.464,842.199 1869.867,850.106 1869.029,865.918L1883.105,865.918Z" style="fill:rgb(32,64,102);fill-rule:nonzero;"/>
        <path d="M1904.434,859.516C1905.248,853.289 1906.57,848.077 1908.402,843.879C1910.233,839.68 1912.022,837.581 1913.77,837.581C1915.35,837.581 1916.595,839.016 1917.504,841.884C1918.414,844.753 1918.869,847.692 1918.869,850.7C1918.869,852.729 1918.635,854.479 1918.168,855.948C1917.702,857.417 1917.133,858.152 1916.463,858.152C1915.266,858.152 1914.356,855.563 1913.734,850.386C1913.303,846.887 1912.657,845.138 1911.795,845.138C1910.766,845.138 1909.533,847.185 1908.096,851.278C1906.66,855.371 1905.738,859.621 1905.332,864.029C1904.925,868.437 1904.721,874.489 1904.721,882.186L1904.721,897.509C1904.721,906.674 1904.763,912.447 1904.847,914.826C1904.931,917.205 1905.272,919.024 1905.87,920.283C1906.469,921.543 1907.534,922.172 1909.066,922.172L1910.071,922.172L1910.071,927L1894.452,927L1894.452,922.172L1895.206,922.172C1896.642,922.172 1897.665,921.595 1898.276,920.441C1898.886,919.286 1899.251,917.659 1899.371,915.56C1899.491,913.461 1899.55,907.444 1899.55,897.509L1899.55,873.265C1899.55,864.029 1899.509,858.239 1899.425,855.895C1899.341,853.552 1899,851.732 1898.401,850.438C1897.803,849.144 1896.738,848.496 1895.206,848.496L1894.452,848.496L1894.452,843.774C1896.702,843.004 1899.646,840.94 1903.285,837.581C1903.979,843.109 1904.362,850.421 1904.434,859.516Z" style="fill:rgb(32,64,102);fill-rule:nonzero;"/>
        <path d="M1941.634,925.531L1941.634,879.772L1943.429,879.772C1945.464,909.578 1950.288,924.481 1957.9,924.481C1961.323,924.481 1963.974,921.63 1965.854,915.928C1967.733,910.225 1968.672,903.841 1968.672,896.774C1968.672,889.637 1967.847,883.655 1966.195,878.827C1964.543,874.07 1961.527,868.962 1957.146,863.504C1953.244,858.607 1950.3,854.321 1948.313,850.648C1946.326,846.975 1944.776,842.199 1943.663,836.322C1942.55,830.445 1941.993,824.183 1941.993,817.536C1941.993,807.39 1943.196,798.942 1945.602,792.19C1948.008,785.438 1951.054,782.062 1954.74,782.062C1956.799,782.062 1958.738,783.042 1960.557,785.001C1962.377,786.96 1964.244,791.018 1966.159,797.175C1967.26,793.327 1967.882,789.164 1968.026,784.686L1969.606,784.686L1969.606,821.944L1968.026,821.944C1967.116,811.099 1965.507,802.563 1963.196,796.336C1960.886,790.108 1958.211,786.995 1955.171,786.995C1952.275,786.995 1950.15,789.286 1948.798,793.869C1947.445,798.452 1946.769,803.472 1946.769,808.93C1946.769,815.507 1947.619,821.069 1949.318,825.617C1950.994,830.235 1954.022,835.412 1958.403,841.15C1962.592,846.607 1965.638,850.998 1967.541,854.321C1969.444,857.645 1970.97,862.245 1972.12,868.122C1973.269,874 1973.843,880.786 1973.843,888.483C1973.843,900.657 1972.455,910.558 1969.678,918.184C1966.901,925.811 1963.191,929.624 1958.546,929.624C1953.208,929.624 1948.756,923.642 1945.189,911.677C1944.399,914.966 1943.812,919.583 1943.429,925.531L1941.634,925.531Z" style="fill:rgb(32,64,102);fill-rule:nonzero;"/>
        <path d="M2005.334,906.01L2006.914,906.01C2005.286,922.312 2001.217,930.463 1994.705,930.463C1990.516,930.463 1986.991,926.3 1984.131,917.974C1981.27,909.648 1979.84,898.628 1979.84,884.915C1979.84,870.851 1981.384,859.446 1984.472,850.7C1987.56,841.954 1991.21,837.581 1995.423,837.581C1997.961,837.581 2000.295,839.208 2002.425,842.462C2004.556,845.715 2005.621,849.686 2005.621,854.374C2005.621,856.123 2005.424,857.767 2005.029,859.306C2004.634,860.846 2004.065,861.615 2003.323,861.615C2001.743,861.615 2000.774,858.922 2000.415,853.534C2000.127,849.476 1999.685,846.642 1999.086,845.033C1998.464,843.424 1997.255,842.619 1995.459,842.619C1992.252,842.619 1989.84,845.873 1988.224,852.38C1986.608,858.887 1985.8,868.682 1985.8,881.766C1985.8,895.27 1986.668,905.835 1988.404,913.461C1990.139,921.088 1992.766,924.901 1996.285,924.901C2001.025,924.901 2004.041,918.604 2005.334,906.01Z" style="fill:rgb(32,64,102);fill-rule:nonzero;"/>
        <path d="M2020.882,859.516C2021.696,853.289 2023.018,848.077 2024.85,843.879C2026.681,839.68 2028.47,837.581 2030.218,837.581C2031.798,837.581 2033.043,839.016 2033.952,841.884C2034.862,844.753 2035.317,847.692 2035.317,850.7C2035.317,852.729 2035.083,854.479 2034.617,855.948C2034.15,857.417 2033.581,858.152 2032.911,858.152C2031.714,858.152 2030.804,855.563 2030.182,850.386C2029.751,846.887 2029.105,845.138 2028.243,845.138C2027.214,845.138 2025.981,847.185 2024.544,851.278C2023.108,855.371 2022.187,859.621 2021.78,864.029C2021.373,868.437 2021.169,874.489 2021.169,882.186L2021.169,897.509C2021.169,906.674 2021.211,912.447 2021.295,914.826C2021.379,917.205 2021.72,919.024 2022.318,920.283C2022.917,921.543 2023.982,922.172 2025.514,922.172L2026.519,922.172L2026.519,927L2010.9,927L2010.9,922.172L2011.654,922.172C2013.09,922.172 2014.113,921.595 2014.724,920.441C2015.334,919.286 2015.699,917.659 2015.819,915.56C2015.939,913.461 2015.998,907.444 2015.998,897.509L2015.998,873.265C2015.998,864.029 2015.957,858.239 2015.873,855.895C2015.789,853.552 2015.448,851.732 2014.849,850.438C2014.251,849.144 2013.186,848.496 2011.654,848.496L2010.9,848.496L2010.9,843.774C2013.15,843.004 2016.094,840.94 2019.733,837.581C2020.427,843.109 2020.81,850.421 2020.882,859.516Z" style="fill:rgb(32,64,102);fill-rule:nonzero;"/>
        <path d="M2040.38,793.712C2040.38,790.703 2040.745,788.114 2041.475,785.945C2042.205,783.776 2043.085,782.692 2044.114,782.692C2045.143,782.692 2046.017,783.776 2046.735,785.945C2047.453,788.114 2047.813,790.703 2047.813,793.712C2047.813,796.79 2047.453,799.414 2046.735,801.583C2046.017,803.752 2045.143,804.837 2044.114,804.837C2043.085,804.837 2042.205,803.752 2041.475,801.583C2040.745,799.414 2040.38,796.79 2040.38,793.712ZM2047.31,837.581L2047.31,897.509C2047.31,906.674 2047.358,912.447 2047.453,914.826C2047.549,917.205 2047.896,919.024 2048.495,920.283C2049.093,921.543 2050.158,922.172 2051.691,922.172L2052.445,922.172L2052.445,927L2036.609,927L2036.609,922.172L2037.83,922.172C2039.53,922.172 2040.637,921.455 2041.152,920.021C2041.666,918.586 2041.966,916.872 2042.049,914.878C2042.133,912.884 2042.175,907.094 2042.175,897.509L2042.175,871.481C2042.175,861.405 2042.013,855.248 2041.69,853.009C2041.367,850.77 2040.936,849.371 2040.398,848.811C2039.859,848.252 2038.919,847.972 2037.579,847.972L2036.609,847.972L2036.609,843.144C2040.87,841.884 2044.174,840.03 2046.52,837.581L2047.31,837.581Z" style="fill:rgb(32,64,102);fill-rule:nonzero;"/>
        <path d="M2062.93,837.581L2063.899,837.581C2064.306,841.5 2064.51,846.222 2064.51,851.75C2066.042,846.992 2067.687,843.441 2069.447,841.097C2071.206,838.753 2073.067,837.581 2075.03,837.581C2079.1,837.581 2082.487,841.762 2085.192,850.123C2087.897,858.484 2089.25,869.522 2089.25,883.235C2089.25,896.669 2087.891,907.899 2085.174,916.925C2082.457,925.95 2078.884,930.463 2074.456,930.463C2072.637,930.463 2070.895,929.396 2069.231,927.262C2067.568,925.128 2065.994,921.962 2064.51,917.764L2064.51,950.404C2064.51,960.34 2064.575,966.392 2064.707,968.561C2064.839,970.73 2065.216,972.356 2065.838,973.441C2066.46,974.525 2067.622,975.068 2069.321,975.068L2069.321,979.895L2053.953,979.895L2053.953,975.068L2055.03,975.068C2056.73,975.068 2057.837,974.351 2058.351,972.916C2058.866,971.482 2059.165,969.768 2059.249,967.774C2059.333,965.78 2059.375,959.99 2059.375,950.404L2059.375,872.32C2059.375,863.155 2059.333,857.382 2059.249,855.003C2059.165,852.624 2058.824,850.805 2058.226,849.546C2057.627,848.286 2056.562,847.657 2055.03,847.657L2053.953,847.657L2053.953,842.829C2056.323,842.129 2059.315,840.38 2062.93,837.581ZM2064.51,910.837C2065.802,915.455 2067.173,918.936 2068.621,921.28C2070.069,923.624 2071.595,924.796 2073.199,924.796C2075.904,924.796 2078.262,921.403 2080.273,914.616C2082.284,907.829 2083.289,897.019 2083.289,882.186C2083.289,869.312 2082.32,859.691 2080.381,853.324C2078.442,846.957 2076.132,843.774 2073.45,843.774C2071.799,843.774 2070.231,844.998 2068.747,847.447C2067.262,849.896 2065.85,853.604 2064.51,858.572L2064.51,910.837Z" style="fill:rgb(32,64,102);fill-rule:nonzero;"/>
        <path d="M2112.338,845.873L2103.469,845.873L2103.469,897.824C2103.469,905.8 2103.589,911.17 2103.828,913.934C2104.068,916.697 2104.576,918.919 2105.354,920.598C2106.132,922.277 2106.964,923.117 2107.85,923.117C2109.573,923.117 2111.07,920.248 2112.338,914.511L2113.487,916.505C2112.745,921.123 2111.65,924.604 2110.202,926.948C2108.754,929.291 2107.287,930.463 2105.803,930.463C2104.08,930.463 2102.565,928.977 2101.261,926.003C2099.956,923.029 2099.142,919.548 2098.819,915.56C2098.496,911.572 2098.334,904.575 2098.334,894.57L2098.334,845.873L2094.061,845.873L2094.061,841.045C2096.024,840.905 2097.784,838.491 2099.34,833.803C2100.896,829.115 2101.889,822.538 2102.32,814.072L2103.469,814.072L2103.469,841.045L2112.338,841.045L2112.338,845.873Z" style="fill:rgb(32,64,102);fill-rule:nonzero;"/>
        <path d="M2118.514,793.712C2118.514,790.703 2118.879,788.114 2119.61,785.945C2120.34,783.776 2121.219,782.692 2122.249,782.692C2123.278,782.692 2124.152,783.776 2124.87,785.945C2125.588,788.114 2125.947,790.703 2125.947,793.712C2125.947,796.79 2125.588,799.414 2124.87,801.583C2124.152,803.752 2123.278,804.837 2122.249,804.837C2121.219,804.837 2120.34,803.752 2119.61,801.583C2118.879,799.414 2118.514,796.79 2118.514,793.712ZM2125.445,837.581L2125.445,897.509C2125.445,906.674 2125.492,912.447 2125.588,914.826C2125.684,917.205 2126.031,919.024 2126.63,920.283C2127.228,921.543 2128.293,922.172 2129.825,922.172L2130.579,922.172L2130.579,927L2114.744,927L2114.744,922.172L2115.965,922.172C2117.665,922.172 2118.772,921.455 2119.286,920.021C2119.801,918.586 2120.1,916.872 2120.184,914.878C2120.268,912.884 2120.31,907.094 2120.31,897.509L2120.31,871.481C2120.31,861.405 2120.148,855.248 2119.825,853.009C2119.502,850.77 2119.071,849.371 2118.532,848.811C2117.994,848.252 2117.054,847.972 2115.714,847.972L2114.744,847.972L2114.744,843.144C2119.005,841.884 2122.309,840.03 2124.655,837.581L2125.445,837.581Z" style="fill:rgb(32,64,102);fill-rule:nonzero;"/>
        <path d="M2142.106,837.581L2143.075,837.581C2143.626,841.919 2143.937,847.832 2144.009,855.318C2145.732,849.371 2147.54,844.928 2149.431,841.989C2151.322,839.051 2153.297,837.581 2155.356,837.581C2157.701,837.581 2159.623,839.016 2161.119,841.884C2162.615,844.753 2163.578,848.269 2164.009,852.432C2164.44,856.595 2164.656,862.665 2164.656,870.641L2164.656,897.509C2164.656,907.444 2164.715,913.496 2164.835,915.665C2164.955,917.834 2165.332,919.461 2165.966,920.545C2166.601,921.63 2167.768,922.172 2169.467,922.172L2169.467,927L2154.422,927L2154.422,922.172L2155.104,922.172C2156.828,922.172 2157.953,921.438 2158.479,919.968C2159.006,918.499 2159.305,916.785 2159.377,914.826C2159.449,912.867 2159.485,907.094 2159.485,897.509L2159.485,869.802C2159.485,863.015 2159.371,858.169 2159.144,855.266C2158.916,852.362 2158.306,849.791 2157.312,847.552C2156.319,845.313 2155.056,844.193 2153.524,844.193C2151.777,844.193 2150.107,845.715 2148.515,848.759C2146.923,851.802 2145.421,856.368 2144.009,862.455L2144.009,897.509C2144.009,907.444 2144.075,913.496 2144.206,915.665C2144.338,917.834 2144.721,919.461 2145.355,920.545C2145.99,921.63 2147.169,922.172 2148.892,922.172L2148.892,927L2134.026,927L2134.026,922.172C2135.678,922.172 2136.827,921.682 2137.474,920.703C2138.12,919.723 2138.521,918.237 2138.676,916.242C2138.832,914.248 2138.91,908.004 2138.91,897.509L2138.91,871.901C2138.91,861.895 2138.844,855.826 2138.712,853.691C2138.581,851.557 2138.198,849.948 2137.563,848.864C2136.929,847.779 2135.75,847.237 2134.026,847.237L2134.026,842.409C2136.66,841.57 2139.353,839.96 2142.106,837.581Z" style="fill:rgb(32,64,102);fill-rule:nonzero;"/>
        <path d="M2196.254,848.601C2198.289,841.884 2200.348,838.526 2202.43,838.526C2203.579,838.526 2204.471,839.436 2205.105,841.255C2205.74,843.074 2206.057,845.068 2206.057,847.237C2206.057,851.855 2205.339,854.164 2203.902,854.164C2203.112,854.164 2202.43,852.729 2201.856,849.861C2201.329,847.202 2200.779,845.873 2200.204,845.873C2199.294,845.873 2198.289,847.692 2197.188,851.33C2198.433,857.067 2199.055,863.155 2199.055,869.592C2199.055,877.988 2198.026,885.404 2195.967,891.841C2193.908,898.348 2190.437,901.847 2185.554,902.336C2180.479,902.826 2177.941,905.835 2177.941,911.362C2177.941,913.951 2178.516,915.77 2179.665,916.82C2180.79,917.939 2183.16,918.779 2186.775,919.339C2190.724,919.898 2193.765,920.965 2195.895,922.54C2198.026,924.114 2199.725,927.28 2200.994,932.038C2202.263,936.795 2202.897,942.463 2202.897,949.04C2202.897,958.275 2201.604,965.727 2199.019,971.394C2196.434,977.062 2192.711,979.895 2187.852,979.895C2183.399,979.895 2179.832,977.377 2177.151,972.339C2174.47,967.301 2173.13,960.934 2173.13,953.238C2173.13,948.97 2173.513,945.471 2174.279,942.743C2175.045,940.014 2176.134,938.65 2177.546,938.65C2177.929,938.65 2178.276,938.825 2178.588,939.174C2177.103,943.932 2176.361,948.97 2176.361,954.287C2176.361,960.444 2177.349,965.535 2179.324,969.558C2181.299,973.581 2184.249,975.592 2188.175,975.592C2191.67,975.592 2194.393,973.546 2196.344,969.453C2198.295,965.36 2199.27,960.13 2199.27,953.763C2199.27,946.766 2198.397,941.833 2196.649,938.964C2194.902,936.166 2191.79,934.487 2187.313,933.927C2182.166,933.297 2178.827,931.443 2177.295,928.364C2175.763,925.356 2174.997,921.473 2174.997,916.715C2174.997,907.549 2177.187,901.777 2181.568,899.398C2179.294,895.48 2177.582,891.002 2176.433,885.964C2175.284,880.926 2174.71,875.294 2174.71,869.067C2174.71,860.321 2175.889,852.887 2178.247,846.765C2180.604,840.643 2183.399,837.581 2186.631,837.581C2190.629,837.581 2193.836,841.255 2196.254,848.601ZM2180.096,871.481C2180.096,880.507 2180.73,887.118 2181.999,891.317C2183.268,895.515 2184.883,897.614 2186.846,897.614C2188.666,897.614 2190.228,895.532 2191.532,891.369C2192.837,887.206 2193.489,879.982 2193.489,869.697C2193.489,859.341 2192.795,852.205 2191.407,848.286C2190.018,844.368 2188.45,842.409 2186.703,842.409C2184.5,842.409 2182.849,844.823 2181.748,849.651C2180.646,854.479 2180.096,861.755 2180.096,871.481Z" style="fill:rgb(32,64,102);fill-rule:nonzero;"/>
    </g>
</svg>
